<?xml version="1.0" encoding="UTF-8"?>
<svg id="Layer_2" data-name="Layer 2" xmlns="http://www.w3.org/2000/svg" viewBox="0 0 512 512">
  <defs>
    <style>
      :root {
        background-color: #000;
      }
      .cls-1 {
        fill: #fff;
        stroke-width: 0px;
      }
    </style>
  </defs>
  <path class="cls-1" d="m395.27,61.48c-.13-4.4-6.73-3.62-6.73-3.62,0,0-212.7,47.87-216.21,49.84-3.51,1.97-4.43,3.67-4.43,3.67l-.05,260.94c-11.39-8.23-22.17-7.87-22.17-7.87h-13.02c-65.85,14.51-70.05,62.5-70.05,62.5v5.43c2.29,26.79,32.59,29.34,32.59,29.34h12.36c61.75-11.45,71.68-57.88,71.68-57.88v-194.33l204.82-47.1v159.26c-11.22-9.49-32.87-7.83-32.87-7.83-62.98,9.71-71.95,58.61-71.95,58.61v11.77c3.25,21.72,29.33,27,29.33,27h17.25c69.52-19.38,69.45-61,69.45-61,0,0,.13-284.35,0-288.75Zm-11.37,67.49l-204.79,47.69-.03-37.77v-.29l204.82-47.11v37.48Z"/>
</svg>